<svg width="32" height="32" viewBox="0 0 32 32" fill="none" xmlns="http://www.w3.org/2000/svg">
  <!-- Background circle -->
  <circle cx="16" cy="16" r="16" fill="#2563eb"/>
  
  <!-- Document icon -->
  <path d="M9 7a1 1 0 0 0-1 1v16a1 1 0 0 0 1 1h10l4-4V8a1 1 0 0 0-1-1H9z" fill="white"/>
  <path d="M19 20v3l3-3h-3z" fill="#2563eb"/>
  
  <!-- Sync arrows -->
  <path d="M11 12h6m-6 2h4m-4 2h5" stroke="#2563eb" stroke-width="1" stroke-linecap="round"/>
  
  <!-- Sync symbol overlay -->
  <g transform="translate(20, 4)">
    <circle cx="4" cy="4" r="4" fill="#10b981" stroke="white" stroke-width="1"/>
    <path d="M2 4l1.5 1.5L6 2.5" stroke="white" stroke-width="1.5" stroke-linecap="round" stroke-linejoin="round"/>
  </g>
</svg>